<svg width="32" height="32" viewBox="0 0 32 32" fill="none" xmlns="http://www.w3.org/2000/svg">
<mask id="mask0_868_779" style="mask-type:luminance" maskUnits="userSpaceOnUse" x="0" y="0" width="32" height="33">
<rect y="0.00012207" width="32" height="32" fill="white"/>
</mask>
<g mask="url(#mask0_868_779)">
<path fill-rule="evenodd" clip-rule="evenodd" d="M21.7239 16.0002H8.66667C8.29848 16.0002 8 15.7017 8 15.3335C8 14.9653 8.29848 14.6668 8.66667 14.6668H21.7239L17.5286 10.4716C17.2682 10.2112 17.2682 9.78911 17.5286 9.52876C17.7889 9.26841 18.2111 9.26841 18.4714 9.52876L23.8047 14.8621C24.0651 15.1224 24.0651 15.5446 23.8047 15.8049L18.4714 21.1382C18.2111 21.3986 17.7889 21.3986 17.5286 21.1382C17.2682 20.8779 17.2682 20.4558 17.5286 20.1954L21.7239 16.0002Z" fill="white"/>
</g>
</svg>
