<svg width="261" height="66" viewBox="0 0 261 66" fill="none" xmlns="http://www.w3.org/2000/svg">
<path d="M32.52 15.92C32.68 15.12 32.76 14.0267 32.76 12.64C32.76 11.84 32.7067 11.0667 32.6 10.32C32.4933 9.52 32.3067 8.82666 32.04 8.24C31.7733 7.6 31.3733 7.12 30.84 6.8C30.3067 6.42667 29.6133 6.24 28.76 6.24C27.8 6.24 26.92 6.45333 26.12 6.88C25.32 7.30666 24.6 7.86666 23.96 8.56C23.3733 9.2 22.8933 9.97333 22.52 10.88C22.2 11.7333 22.04 12.64 22.04 13.6C22.04 14.9867 22.3867 16.0533 23.08 16.8C23.8267 17.5467 24.7867 18.16 25.96 18.64C27.1333 19.12 28.4667 19.52 29.96 19.84C31.4533 20.16 33 20.5333 34.6 20.96C35.9333 21.3333 37.2667 21.8133 38.6 22.4C39.9333 22.9867 41.1067 23.7867 42.12 24.8C43.1867 25.76 44.04 27.04 44.68 28.64C45.32 30.1867 45.64 32.1333 45.64 34.48C45.64 37.84 44.9733 40.6667 43.64 42.96C42.3067 45.2533 40.4667 47.12 38.12 48.56C35.7733 50 32.9733 51.04 29.72 51.68C26.52 52.32 23.0267 52.64 19.24 52.64C15.4 52.64 12.2533 52.4 9.8 51.92C7.4 51.3867 5.50667 50.8267 4.12 50.24C2.46667 49.5467 1.24 48.7467 0.44 47.84L3.16 36.88H17.24C17.1867 37.36 17.1333 38.0267 17.08 38.88C17.0267 39.68 17 40.32 17 40.8C17 41.44 17.08 42.1067 17.24 42.8C17.4 43.4933 17.64 44.1333 17.96 44.72C18.3333 45.3067 18.84 45.7867 19.48 46.16C20.12 46.5333 20.92 46.72 21.88 46.72C22.9467 46.72 23.88 46.48 24.68 46C25.5333 45.52 26.2267 44.9333 26.76 44.24C27.3467 43.4933 27.7733 42.6933 28.04 41.84C28.36 40.9333 28.52 40.0533 28.52 39.2C28.52 38.0267 28.2267 37.04 27.64 36.24C27.1067 35.44 26.36 34.7733 25.4 34.24C24.44 33.6533 23.32 33.1733 22.04 32.8C20.8133 32.3733 19.5333 31.9467 18.2 31.52C16.92 31.1467 15.56 30.6933 14.12 30.16C12.7333 29.6267 11.4533 28.88 10.28 27.92C9.10667 26.96 8.12 25.76 7.32 24.32C6.57333 22.8267 6.2 20.9333 6.2 18.64C6.2 15.2267 7.05333 12.3733 8.76 10.08C10.52 7.73333 12.7067 5.84 15.32 4.4C17.9867 2.96 20.8933 1.94666 24.04 1.36C27.1867 0.719997 30.1733 0.399997 33 0.399997C36.7333 0.399997 39.9333 0.853331 42.6 1.76C45.32 2.61333 47.3733 3.62666 48.76 4.8L45.8 15.92H32.52ZM77.7931 17.6H94.1131L86.7531 52H73.7931L72.3531 46.88H71.8731C70.4865 48.5333 68.5931 49.92 66.1931 51.04C63.8465 52.1067 61.4731 52.64 59.0731 52.64C55.8731 52.64 53.3665 51.84 51.5531 50.24C49.7398 48.5867 48.8331 46.4533 48.8331 43.84C48.8331 42.5067 49.0465 40.8533 49.4731 38.88C49.9531 36.8533 50.3798 34.96 50.7531 33.2L54.1131 17.6H70.3531L66.3531 36.32C66.2465 36.7467 66.1398 37.2533 66.0331 37.84C65.9265 38.4267 65.8198 39.0133 65.7131 39.6C65.6065 40.1333 65.4998 40.6667 65.3931 41.2C65.3398 41.68 65.3131 42.08 65.3131 42.4C65.3131 43.2 65.4731 43.8933 65.7931 44.48C66.1665 45.0133 66.8065 45.28 67.7131 45.28C68.6731 45.28 69.5798 44.96 70.4331 44.32C71.2865 43.68 71.9531 43.0667 72.4331 42.48L77.7931 17.6ZM101.23 17.6H114.27L115.47 23.6H116.03C117.257 21.68 118.83 20.0533 120.75 18.72C122.67 17.3867 125.203 16.72 128.35 16.72C128.563 16.72 128.883 16.7467 129.31 16.8C129.79 16.8 130.297 16.88 130.83 17.04C131.417 17.1467 132.003 17.3333 132.59 17.6C133.23 17.8133 133.843 18.1333 134.43 18.56L130.91 35.04H122.19C122.083 31.7333 121.79 29.44 121.31 28.16C120.83 26.8267 120.057 26.16 118.99 26.16C118.457 26.16 117.87 26.2933 117.23 26.56C116.643 26.7733 116.03 27.28 115.39 28.08L110.27 52H93.95L101.23 17.6ZM136.382 17.6H153.342L156.622 41.12L168.302 17.6H176.782L158.622 52H141.902L136.382 17.6ZM191.331 35.92C191.117 37.0933 190.957 38.2133 190.851 39.28C190.797 40.3467 190.771 41.3067 190.771 42.16C190.771 42.64 190.797 43.1733 190.851 43.76C190.904 44.3467 191.011 44.9067 191.171 45.44C191.384 45.92 191.651 46.3467 191.971 46.72C192.344 47.04 192.851 47.2 193.491 47.2C193.971 47.2 194.504 47.04 195.091 46.72C195.731 46.4 196.344 45.9467 196.931 45.36C197.571 44.7733 198.157 44.0533 198.691 43.2C199.277 42.3467 199.731 41.3867 200.051 40.32H213.171L211.091 48.88C210.024 49.5733 208.797 50.16 207.411 50.64C206.024 51.12 204.557 51.52 203.011 51.84C201.464 52.1067 199.891 52.2933 198.291 52.4C196.691 52.56 195.171 52.64 193.731 52.64C191.064 52.64 188.584 52.4 186.291 51.92C183.997 51.44 181.997 50.6133 180.291 49.44C178.584 48.2667 177.224 46.72 176.211 44.8C175.251 42.8267 174.771 40.4 174.771 37.52C174.771 34.9067 175.171 32.3467 175.971 29.84C176.824 27.3333 178.211 25.12 180.131 23.2C182.104 21.2267 184.717 19.6533 187.971 18.48C191.277 17.3067 195.384 16.72 200.291 16.72C205.624 16.72 209.624 17.5467 212.291 19.2C215.011 20.8533 216.371 23.44 216.371 26.96C216.371 28.4 216.157 29.9733 215.731 31.68C215.304 33.3333 214.664 34.7467 213.811 35.92H191.331ZM201.971 26.4C201.971 24.7467 201.704 23.6267 201.171 23.04C200.637 22.4533 199.997 22.16 199.251 22.16C198.397 22.16 197.597 22.4533 196.851 23.04C196.157 23.5733 195.517 24.32 194.931 25.28C194.344 26.1867 193.811 27.2533 193.331 28.48C192.851 29.6533 192.451 30.9067 192.131 32.24H201.251C201.357 31.6 201.464 30.9333 201.571 30.24C201.677 29.6533 201.757 29.0133 201.811 28.32C201.917 27.6267 201.971 26.9867 201.971 26.4ZM237.174 17.6L239.574 41.12L252.214 17.6H260.694L241.414 52C239.494 55.36 237.547 57.9467 235.574 59.76C233.6 61.5733 231.44 62.9067 229.094 63.76C226.8 64.6133 224.24 65.0933 221.414 65.2C218.64 65.36 215.467 65.44 211.894 65.44L213.094 59.92C214.854 59.92 216.48 59.8933 217.974 59.84C219.52 59.7867 220.747 59.6267 221.654 59.36C222.88 59.04 223.76 58.4533 224.294 57.6C224.827 56.8 225.094 55.6 225.094 54C225.094 52.9333 224.987 51.7067 224.774 50.32C224.614 48.9333 224.427 47.4667 224.214 45.92L220.294 17.6H237.174Z" fill="#E5EEF8"/>
</svg>
